<svg width="22" height="22" viewBox="0 0 22 22" fill="none" xmlns="http://www.w3.org/2000/svg">
<path d="M11.9718 10.0283C12.4621 10.5171 12.8511 11.0979 13.1165 11.7373C13.3819 12.3767 13.5186 13.0622 13.5186 13.7546C13.5186 14.4469 13.3819 15.1324 13.1165 15.7718C12.8511 16.4113 12.4621 16.992 11.9718 17.4808C9.90927 19.5342 6.5726 19.5433 4.51927 17.4808C2.46594 15.4183 2.45677 12.0817 4.51927 10.0283" stroke="#0194FC" stroke-width="1.5" stroke-linecap="round" stroke-linejoin="round"/>
<path d="M9.70738 12.2926C7.56238 10.1476 7.56238 6.6643 9.70738 4.51014C11.8524 2.35597 15.3357 2.36514 17.4899 4.51014C19.644 6.65514 19.6349 10.1385 17.4899 12.2926" stroke="#0194FC" stroke-width="1.5" stroke-linecap="round" stroke-linejoin="round"/>
</svg>
