<svg width="22" height="22" viewBox="0 0 22 22" fill="none" xmlns="http://www.w3.org/2000/svg">
<path d="M15.4444 16.7159H11.8889L7.93331 19.347C7.79981 19.436 7.64467 19.4871 7.48442 19.4948C7.32417 19.5025 7.16483 19.4666 7.0234 19.3908C6.88196 19.3151 6.76374 19.2024 6.68134 19.0647C6.59895 18.9271 6.55546 18.7696 6.55553 18.6092V16.7159C3.88886 16.7159 2.11108 14.9381 2.11108 12.2714V6.9381C2.11108 4.27143 3.88886 2.49365 6.55553 2.49365H15.4444C18.1111 2.49365 19.8889 4.27143 19.8889 6.9381V12.2714C19.8889 14.9381 18.1111 16.7159 15.4444 16.7159Z" stroke="#0194FC" stroke-width="1.5" stroke-miterlimit="10" stroke-linecap="round" stroke-linejoin="round"/>
<path d="M11 10.4312V10.2445C11 9.64004 11.3733 9.32004 11.7466 9.06226C12.1111 8.81337 12.4755 8.49337 12.4755 7.90671C12.4755 7.08893 11.8177 6.43115 11 6.43115C10.1822 6.43115 9.52441 7.08893 9.52441 7.90671M10.9955 12.5556H11.0044" stroke="#0194FC" stroke-width="1.5" stroke-linecap="round" stroke-linejoin="round"/>
</svg>
