<svg width="16" height="16" viewBox="0 0 16 16" fill="none" xmlns="http://www.w3.org/2000/svg">
<g id="Iconsax/Linear/notepad2">
<path id="Vector" d="M14.4398 6.96009L13.7865 9.74675C13.2265 12.1534 12.1198 13.1268 10.0398 12.9268C9.70646 12.9001 9.34646 12.8401 8.95979 12.7468L7.83979 12.4801C5.05979 11.8201 4.19979 10.4468 4.85313 7.66009L5.50646 4.86675C5.63979 4.30009 5.79979 3.80675 5.99979 3.40009C6.77979 1.78675 8.10646 1.35342 10.3331 1.88009L11.4465 2.14009C14.2398 2.79342 15.0931 4.17342 14.4398 6.96009Z" stroke="white" stroke-width="1.2" stroke-linecap="round" stroke-linejoin="round"/>
<path id="Vector_2" d="M8.42689 5.68657L11.6602 6.50657M7.77356 8.26657L9.70689 8.7599M10.0402 12.9266C9.62689 13.2066 9.10689 13.4399 8.47356 13.6466L7.42023 13.9932C4.77356 14.8466 3.38023 14.1332 2.52023 11.4866L1.66689 8.85324C0.813561 6.20657 1.52023 4.80657 4.16689 3.95324L5.22023 3.60657C5.49356 3.5199 5.75356 3.44657 6.00023 3.3999C5.80023 3.80657 5.64023 4.2999 5.50689 4.86657L4.85356 7.6599C4.20023 10.4466 5.06023 11.8199 7.84023 12.4799L8.96023 12.7466C9.34689 12.8399 9.70689 12.8999 10.0402 12.9266Z" stroke="white" stroke-width="1.2" stroke-linecap="round" stroke-linejoin="round"/>
</g>
</svg>
