<svg width="22" height="22" viewBox="0 0 22 22" fill="none" xmlns="http://www.w3.org/2000/svg">
<path d="M10.6651 5.72339V8.68293M10.6829 1.77734C7.41227 1.77734 4.7638 4.42582 4.7638 7.69642V9.56279C4.7638 10.1671 4.51495 11.0737 4.20388 11.5891L3.07517 13.4733C2.38195 14.6376 2.86187 15.9351 4.14167 16.3617C8.39103 17.7748 12.9836 17.7748 17.233 16.3617C17.5134 16.2682 17.7691 16.1129 17.9814 15.9072C18.1937 15.7015 18.3571 15.4508 18.4595 15.1735C18.5619 14.8962 18.6007 14.5995 18.573 14.3052C18.5453 14.0109 18.4518 13.7266 18.2995 13.4733L17.1707 11.5891C16.8597 11.0737 16.6108 10.1583 16.6108 9.56279V7.69642C16.6019 4.44359 13.9357 1.77734 10.6829 1.77734Z" stroke="#0194FC" stroke-width="1.5" stroke-miterlimit="10" stroke-linecap="round"/>
<path d="M13.6246 16.7261C13.6246 18.3525 12.2915 19.6856 10.6651 19.6856C9.85634 19.6856 9.10979 19.3479 8.57654 18.8146C8.04329 18.2814 7.70557 17.5348 7.70557 16.7261" stroke="#0194FC" stroke-width="1.5" stroke-miterlimit="10"/>
</svg>
