<svg width="28" height="28" viewBox="0 0 28 28" fill="none" xmlns="http://www.w3.org/2000/svg">
<path d="M25.6667 6.99992V9.82325C25.6667 11.6666 24.5001 12.8333 22.6567 12.8333H18.6667V4.67825C18.6667 3.38325 19.7284 2.33325 21.0234 2.33325C22.2951 2.34492 23.4617 2.85825 24.3017 3.69825C25.1417 4.54992 25.6667 5.71659 25.6667 6.99992Z" stroke="#0194FC" stroke-width="2" stroke-miterlimit="10" stroke-linecap="round" stroke-linejoin="round"/>
<path d="M2.33325 8.16659V24.4999C2.33325 25.4683 3.42992 26.0166 4.19992 25.4333L6.19492 23.9399C6.66159 23.5899 7.31492 23.6366 7.73492 24.0566L9.67158 26.0049C10.1266 26.4599 10.8733 26.4599 11.3283 26.0049L13.2883 24.0449C13.6966 23.6366 14.3499 23.5899 14.8049 23.9399L16.7999 25.4333C17.5699 26.0049 18.6666 25.4566 18.6666 24.4999V4.66659C18.6666 3.38325 19.7166 2.33325 20.9999 2.33325H6.99992C3.49992 2.33325 2.33325 4.42159 2.33325 6.99992V8.16659Z" stroke="#0194FC" stroke-width="2" stroke-miterlimit="10" stroke-linecap="round" stroke-linejoin="round"/>
<path d="M10.5 15.1784H14M10.5 10.5117H14" stroke="#0194FC" stroke-width="2" stroke-linecap="round" stroke-linejoin="round"/>
<path d="M6.99536 15.1667H7.00586M6.99536 10.5H7.00586" stroke="#0194FC" stroke-width="2" stroke-linecap="round" stroke-linejoin="round"/>
</svg>
