<svg width="22" height="22" viewBox="0 0 22 22" fill="none" xmlns="http://www.w3.org/2000/svg">
<path d="M8.44312 12.2202C8.44312 13.0823 9.10968 13.7755 9.92733 13.7755H11.5982C12.3092 13.7755 12.8869 13.1712 12.8869 12.4157C12.8869 11.607 12.5314 11.3137 12.007 11.1271L9.33187 10.1939C8.8075 10.0072 8.452 9.72283 8.452 8.90518C8.452 8.15863 9.02969 7.54539 9.74069 7.54539H11.4115C12.2292 7.54539 12.8958 8.23861 12.8958 9.1007M10.665 6.66553V14.6643" stroke="#0194FC" stroke-width="1.5" stroke-linecap="round" stroke-linejoin="round"/>
<path d="M19.5526 10.6648C19.5526 15.5707 15.571 19.5523 10.6651 19.5523C5.75919 19.5523 1.77759 15.5707 1.77759 10.6648C1.77759 5.75894 5.75919 1.77734 10.6651 1.77734M19.5526 5.33234V1.77734M19.5526 1.77734H15.9976M19.5526 1.77734L15.1088 6.22109" stroke="#0194FC" stroke-width="1.5" stroke-linecap="round" stroke-linejoin="round"/>
</svg>
