<svg width="22" height="22" viewBox="0 0 22 22" fill="none" xmlns="http://www.w3.org/2000/svg">
<path d="M13.3313 10.6648C13.3313 9.18946 12.1404 7.99854 10.665 7.99854C9.18971 7.99854 7.99878 9.18946 7.99878 10.6648C7.99825 11.1052 8.10696 11.5388 8.31518 11.9269C8.5234 12.315 8.82462 12.6453 9.19186 12.8884C9.5591 13.1315 9.9809 13.2796 10.4195 13.3197C10.858 13.3597 11.2997 13.2903 11.7049 13.1177" stroke="#0194FC" stroke-width="1.5" stroke-miterlimit="10" stroke-linecap="round" stroke-linejoin="round"/>
<path d="M6.11469 18.2907L7.08343 18.8506C7.78554 19.2683 8.69206 19.0195 9.10978 18.3174L9.20754 18.1485C10.0074 16.7532 11.3228 16.7532 12.1315 18.1485L12.2293 18.3174C12.647 19.0195 13.5535 19.2683 14.2556 18.8506L15.7932 17.9708C16.6019 17.5086 16.8775 16.4688 16.4153 15.6689C15.6065 14.2736 16.2642 13.136 17.8729 13.136C18.7972 13.136 19.5615 12.3805 19.5615 11.4473V9.88313C19.5615 8.95883 18.806 8.1945 17.8729 8.1945C16.9752 8.1945 16.3709 7.839 16.1576 7.27909C15.9887 6.8436 16.0598 6.2748 16.4153 5.66157C16.8775 4.8528 16.6019 3.82185 15.7932 3.3597L15.0733 2.95088M12.1226 3.18284C11.3228 4.57818 10.0074 4.57818 9.19865 3.18284L9.10089 3.01398C9.00388 2.84604 8.87461 2.69894 8.72053 2.58115C8.56645 2.46336 8.3906 2.37721 8.20309 2.32764C8.01559 2.27808 7.82013 2.26609 7.62797 2.29237C7.43581 2.31864 7.25075 2.38266 7.08343 2.48073L5.54589 3.36059C4.73713 3.82274 4.46161 4.86258 4.92376 5.67134C5.73253 7.05779 5.07485 8.19539 3.46621 8.19539C2.54191 8.19539 1.77759 8.95083 1.77759 9.88402V11.4482C1.77759 12.3725 2.53303 13.1368 3.46621 13.1368C5.07485 13.1368 5.73253 14.2744 4.92376 15.6698" stroke="#0194FC" stroke-width="1.5" stroke-miterlimit="10" stroke-linecap="round" stroke-linejoin="round"/>
</svg>
