<svg width="243" height="244" viewBox="0 0 243 244" fill="none" xmlns="http://www.w3.org/2000/svg">
<path d="M121.272 38.2497C134.212 38.2497 146.975 41.2478 158.561 47.0088C170.147 52.7698 180.24 61.137 188.05 71.454C195.859 81.7709 201.171 93.757 203.57 106.472C205.969 119.187 205.39 132.285 201.877 144.738C198.364 157.191 192.013 168.661 183.323 178.248C174.633 187.834 163.839 195.277 151.79 199.992C139.74 204.707 126.762 206.565 113.873 205.422C100.985 204.279 88.5361 200.165 77.5044 193.403" stroke="#0194FC" stroke-width="2.5"/>
<path d="M201.386 164.469C194.813 176.868 185.452 187.571 174.04 195.738C162.628 203.905 149.477 209.311 135.62 211.531C121.764 213.752 107.581 212.726 94.1891 208.534C80.7966 204.343 68.5599 197.1 58.442 187.376C48.3242 177.652 40.6014 165.712 35.8816 152.497C31.1618 139.281 29.5738 125.15 31.2427 111.217C32.9115 97.2835 37.7916 83.9275 45.4988 72.2004C53.206 60.4733 63.5299 50.6951 75.658 43.6355" stroke="#0194FC" stroke-width="2.5"/>
<path d="M23.6516 127.372C22.3362 103.466 29.8385 79.9078 44.7362 61.165C59.6338 42.4223 80.8911 29.7976 104.477 25.6846C128.064 21.5717 152.339 26.2565 172.702 38.8508C193.064 51.445 208.097 71.0731 214.95 94.0135" stroke="#0194FC" stroke-width="2.5"/>
<path d="M150.593 192.928C137.495 198.343 123.153 200.025 109.158 197.788C95.1626 195.55 82.06 189.482 71.3025 180.254C60.545 171.026 52.5527 159 48.2115 145.508C43.8703 132.017 43.3497 117.586 46.7075 103.817C50.0652 90.0471 57.1702 77.4763 67.2348 67.4974C77.2995 57.5186 89.9307 50.5215 103.728 47.2818C117.526 44.042 131.952 44.6861 145.406 49.1427C158.86 53.5992 170.817 61.6942 179.952 72.5303" stroke="#0194FC" stroke-width="2.5"/>
<path d="M92.6871 117.723L86.1147 125.026L118.246 152.046L158.411 101.658L150.378 95.0853L116.786 137.441L92.6871 117.723Z" fill="#0194FC"/>
</svg>
