<svg width="22" height="22" viewBox="0 0 22 22" fill="none" xmlns="http://www.w3.org/2000/svg">
<g clip-path="url(#clip0_571_3475)">
<path d="M7.99868 16.8861C7.99868 17.5526 7.81204 18.1836 7.4832 18.7169C7.16989 19.2435 6.72485 19.6794 6.19188 19.9817C5.65892 20.284 5.05642 20.4423 4.44368 20.4411C3.83094 20.4423 3.22844 20.284 2.69547 19.9817C2.16251 19.6794 1.71747 19.2435 1.40415 18.7169C1.06584 18.1662 0.887366 17.5323 0.888679 16.8861C0.888679 14.9219 2.47954 13.3311 4.44368 13.3311C6.40782 13.3311 7.99868 14.9219 7.99868 16.8861Z" stroke="#0194FC" stroke-width="1.5" stroke-miterlimit="10" stroke-linecap="round" stroke-linejoin="round"/>
<path d="M3.05811 16.8861L3.93797 17.7659L5.83101 16.0151M15.7761 6.2655C15.5628 6.22995 15.3406 6.22106 15.1096 6.22106H6.22206C5.97321 6.22106 5.73324 6.23883 5.50217 6.27438C5.62659 6.02553 5.80434 5.79446 6.01764 5.58116L8.90608 2.68383C9.49267 2.10311 10.2848 1.77734 11.1102 1.77734C11.9356 1.77734 12.7277 2.10311 13.3143 2.68383L14.8696 4.25692C15.4384 4.81683 15.7406 5.52783 15.7761 6.2655Z" stroke="#0194FC" stroke-width="1.5" stroke-linecap="round" stroke-linejoin="round"/>
<path d="M19.5526 10.6649V15.1087C19.5526 17.7749 17.7751 19.5524 15.1088 19.5524H6.78125C7.05676 19.3214 7.29673 19.037 7.48336 18.717C7.8122 18.1838 7.99884 17.5528 7.99884 16.8862C7.99884 14.9221 6.40798 13.3312 4.44384 13.3312C3.37734 13.3312 2.42638 13.8022 1.77759 14.5399V10.6649C1.77759 8.24754 3.23514 6.55892 5.50145 6.27452C5.73253 6.23897 5.97249 6.22119 6.22134 6.22119H15.1088C15.3399 6.22119 15.5621 6.23008 15.7754 6.26563C18.0684 6.53225 19.5526 8.22977 19.5526 10.6649Z" stroke="#0194FC" stroke-width="1.5" stroke-linecap="round" stroke-linejoin="round"/>
<path d="M19.5524 11.1094H16.8861C15.9085 11.1094 15.1086 11.9092 15.1086 12.8869C15.1086 13.8645 15.9085 14.6644 16.8861 14.6644H19.5524" stroke="#0194FC" stroke-width="1.5" stroke-linecap="round" stroke-linejoin="round"/>
</g>
<defs>
<clipPath id="clip0_571_3475">
<rect width="21.33" height="21.33" fill="white"/>
</clipPath>
</defs>
</svg>
